<?xml version="1.0" encoding="utf-8"?>
<!-- Generator: Adobe Illustrator 16.0.0, SVG Export Plug-In . SVG Version: 6.00 Build 0)  -->
<!DOCTYPE svg PUBLIC "-//W3C//DTD SVG 1.1//EN" "http://www.w3.org/Graphics/SVG/1.1/DTD/svg11.dtd">
<svg version="1.1" id="Layer_1" xmlns="http://www.w3.org/2000/svg" xmlns:xlink="http://www.w3.org/1999/xlink" x="0px" y="0px"
	 width="113.39px" height="113.386px" viewBox="0 0 113.39 113.386" enable-background="new 0 0 113.39 113.386"
	 xml:space="preserve">
<g>
	<linearGradient id="SVGID_1_" gradientUnits="userSpaceOnUse" x1="-0.0073" y1="40.5796" x2="113.4016" y2="40.5796">
		<stop  offset="0" style="stop-color:#F49833"/>
		<stop  offset="1" style="stop-color:#F5C622"/>
	</linearGradient>
	<path fill="url(#SVGID_1_)" d="M48.871,34.561c-2.688,4.516-5.251,9.068-3.559,13.032C46.718,44.239,51.786,29.667,48.871,34.561z"
		/>
	<linearGradient id="SVGID_2_" gradientUnits="userSpaceOnUse" x1="-0.0732" y1="26.9292" x2="113.4885" y2="26.9292">
		<stop  offset="0" style="stop-color:#F49833"/>
		<stop  offset="1" style="stop-color:#F5C622"/>
	</linearGradient>
	<path fill="url(#SVGID_2_)" d="M48.387,27.034c0.096-0.074,0.16-0.172,0.21-0.282C48.332,27.039,48.156,27.214,48.387,27.034z"/>
	<linearGradient id="SVGID_3_" gradientUnits="userSpaceOnUse" x1="0.002" y1="56.6929" x2="113.3887" y2="56.6929">
		<stop  offset="0" style="stop-color:#F49833"/>
		<stop  offset="1" style="stop-color:#F5C622"/>
	</linearGradient>
	<path fill="url(#SVGID_3_)" d="M56.695,0C25.381,0,0.002,25.381,0.002,56.692c0,31.309,25.379,56.694,56.693,56.694
		c31.305,0,56.693-25.386,56.693-56.694C113.389,25.381,88,0,56.695,0z M95.086,68.342c-1.588,19.81-20.65,36.084-41.178,36.084
		c-22.794,0-40.324-13.898-40.324-35.967c0-7.71,2.096-14.838,5.847-20.867c1.293-2.081,2.47-3.502,4.138-5.3
		c1.762-1.896,4.037-4.162,6.171-5.701c2.091-1.498,4.345-2.815,6.755-3.92c2.308-1.063-1.277-16.516,2.016-19.723
		c2.408-2.336,11.52,10.625,10.887,12.727c-0.087,0.283-0.5,0.751-0.8,1.076c-0.05,0.11-0.114,0.208-0.21,0.282
		c-0.23,0.18-0.055,0.004,0.21-0.282c0.981-2.169-6.43-11.012-8.501-11.479c2.176,4.78,0.596,13.537,3.213,13.464
		c1.738-0.052-4.256,2.314-5.182,3.514c1.224-1.587,11.124-3.384,13.883-3.677c0.441-0.042,1.418-0.066,2.85-0.066
		c4.686,0,9.189,0.751,13.377,2.142c0.594,0.201,7.398,10.635,8.25,10.09c0.162-0.104,4.141-15.863,4.141-15.863
		c-7.244,14.408-10.307,4.832-10.307,4.832s14.068-16.442,15.938-13.745c1.033,1.495,1.377,2.491,1.566,4.09
		c0.297,2.551,1.871,12.514-1.107,21.238c0,0,0,0,1.107,1.438C92.992,49.402,95.82,59.292,95.086,68.342z"/>
</g>
<g>
	<path fill="none" d="M48.871,34.561c-2.688,4.516-5.251,9.068-3.559,13.032C46.718,44.239,51.786,29.667,48.871,34.561z"/>
	<g>
		<path fill="none" d="M35.108,48.131c0-0.273-0.202-0.491-0.444-0.52c-0.562-0.845-1.644-1.622-3.539-1.622
			c-1.58,0-3.645,2.929-3.371,5.142c0.252,1.962,2.695,3.238,3.602,3.238c1.941,0,3.887-4.27,3.817-5.349
			c-0.014-0.187-0.065-0.403-0.138-0.627C35.077,48.313,35.108,48.228,35.108,48.131z"/>
		<path fill="none" d="M48.871,34.561c-2.688,4.516-5.251,9.068-3.559,13.032C46.718,44.239,51.786,29.667,48.871,34.561z"/>
		<linearGradient id="SVGID_4_" gradientUnits="userSpaceOnUse" x1="0.0044" y1="55.3223" x2="113.387" y2="55.3223">
			<stop  offset="0" style="stop-color:#F49833"/>
			<stop  offset="1" style="stop-color:#F5C622"/>
		</linearGradient>
		<path fill="url(#SVGID_4_)" d="M56.393,50.349c-0.898,0.051-1.808,0.476-2.651,1.09c0.021-0.001,0.039-0.008,0.06-0.009
			c2.223-0.031,2.424,0.241,2.357,0.824c-0.196,1.705-1.533-0.838-2.021-0.203c-0.709,0.931-0.909,4.19-0.621,5.326
			c0.348,1.363-0.447,0.305-1.521-0.31c-0.797-0.453-0.821-2.192-0.289-3.622c-1.613,2.093-2.346,4.531-0.926,4.871
			c2.521,0.6,2.355,1.87,5.954,1.984c3.581,0.105,6.878-5.166,6.878-5.166S60.314,50.124,56.393,50.349z"/>
		<path fill="none" d="M31.355,54.368c-0.906,0-3.35-1.275-3.602-3.238c-0.273-2.213,1.791-5.142,3.371-5.142
			c1.896,0,2.978,0.777,3.539,1.622c0.242,0.029,0.444,0.247,0.444,0.52c0,0.097-0.031,0.183-0.073,0.261
			c0.072,0.224,0.124,0.44,0.138,0.627C35.242,50.098,33.297,54.368,31.355,54.368z M45.312,47.593
			c-1.692-3.963,0.871-8.516,3.559-13.032C51.786,29.667,46.718,44.239,45.312,47.593z M56.733,60.301
			c-3.599-0.114-3.434-1.385-5.954-1.984c-1.42-0.34-0.688-2.778,0.926-4.871c0.397-1.066,1.106-1.954,2.036-2.007
			c0.844-0.615,1.753-1.039,2.651-1.09c3.922-0.225,7.219,4.787,7.219,4.787S60.314,60.407,56.733,60.301z"/>
	</g>
	<linearGradient id="SVGID_5_" gradientUnits="userSpaceOnUse" x1="0.002" y1="50.1782" x2="113.3887" y2="50.1782">
		<stop  offset="0" style="stop-color:#F49833"/>
		<stop  offset="1" style="stop-color:#F5C622"/>
	</linearGradient>
	<path fill="url(#SVGID_5_)" d="M34.613,48.66c-0.272,0-0.494-0.238-0.494-0.529c0-0.293,0.222-0.531,0.494-0.531
		c0.018,0,0.033,0.009,0.051,0.011c-0.562-0.845-1.644-1.622-3.539-1.622c-1.58,0-3.645,2.929-3.371,5.142
		c0.252,1.962,2.695,3.238,3.602,3.238c1.941,0,3.887-4.27,3.817-5.349c-0.014-0.187-0.065-0.403-0.138-0.627
		C34.949,48.549,34.796,48.66,34.613,48.66z M30.916,47.458c0,0-1.672,2.142,0.496,5.091c0.501,0.688-1.682-0.616-1.852-2.869
		c-0.175-2.258,2.359-3.783,1.852-3.054c-0.045,0.069-0.205,0.185-0.127,0.196C32.473,47.019,31.417,47.84,30.916,47.458z"/>
</g>
<linearGradient id="SVGID_6_" gradientUnits="userSpaceOnUse" x1="23.8579" y1="65.8452" x2="37.5" y2="65.8452">
	<stop  offset="0" style="stop-color:#F49833"/>
	<stop  offset="1" style="stop-color:#F5C622"/>
</linearGradient>
<path fill="url(#SVGID_6_)" d="M31.743,70.98c0.517-0.175,2.388-0.175-0.208-2.907c3.52,3.895,10.805-4.695,1.176-7.418
	c-2.583-0.736-9.777-0.47-8.754,4.185c0.205,0.484,2.423,2.529,2.496,2.329c-2.872-0.428-0.957,3.788,1.977,4.166
	C28.992,71.403,31.207,71.165,31.743,70.98z"/>
<linearGradient id="SVGID_7_" gradientUnits="userSpaceOnUse" x1="24.6606" y1="78.0894" x2="50.3457" y2="78.0894">
	<stop  offset="0" style="stop-color:#F49833"/>
	<stop  offset="1" style="stop-color:#F5C622"/>
</linearGradient>
<path fill="url(#SVGID_7_)" d="M31.913,76.396c-5.158-3.608-10.347,1.161-4.999,3.14c3.787,1.401,4.238,0.726,7.677,1.267
	c2.291,0.369,15.526,1.077,15.755-3.04c-0.553,0.053-0.061,1.092,0,0C46.268,78.135,42.057,79,40.28,79.34
	c-1.317,0.257-2.694-1.115-4.329-1.676L31.913,76.396z"/>
</svg>
