<?xml version="1.0" encoding="utf-8"?>
<!-- Generator: Adobe Illustrator 16.0.0, SVG Export Plug-In . SVG Version: 6.00 Build 0)  -->
<!DOCTYPE svg PUBLIC "-//W3C//DTD SVG 1.1//EN" "http://www.w3.org/Graphics/SVG/1.1/DTD/svg11.dtd">
<svg version="1.1" id="Layer_1" xmlns="http://www.w3.org/2000/svg" xmlns:xlink="http://www.w3.org/1999/xlink" x="0px" y="0px"
	 width="113.391px" height="113.387px" viewBox="0 0 113.391 113.387" enable-background="new 0 0 113.391 113.387"
	 xml:space="preserve">
<g>
	
		<linearGradient id="SVGID_1_" gradientUnits="userSpaceOnUse" x1="371.781" y1="-204.9055" x2="478.3572" y2="-243.696" gradientTransform="matrix(1 0 0 -1 -364.3047 -178.7837)">
		<stop  offset="0" style="stop-color:#3B8FCE"/>
		<stop  offset="1" style="stop-color:#00B6EC"/>
	</linearGradient>
	<path fill="url(#SVGID_1_)" d="M65.603,52.999c-3.184-4.579-2.011-10.903,2.602-14.078c1.487-1.02,3.15-1.547,4.825-1.697
		c-3.715-1.645-8.155-1.396-11.729,1.091c-5.471,3.786-6.787,11.291-2.995,16.754c3.786,5.457,11.291,6.808,16.745,3.011
		c0.402-0.282,0.735-0.62,1.095-0.938C72.238,58.008,68.021,56.508,65.603,52.999z"/>
	<linearGradient id="SVGID_2_" gradientUnits="userSpaceOnUse" x1="0.0017" y1="56.6921" x2="113.3875" y2="56.6921">
		<stop  offset="0" style="stop-color:#3B8FCE"/>
		<stop  offset="1" style="stop-color:#00B6EC"/>
	</linearGradient>
	<path fill="url(#SVGID_2_)" d="M56.694,0C25.39,0,0.002,25.383,0.002,56.692c0,31.311,25.389,56.694,56.692,56.692
		c31.314,0,56.693-25.382,56.693-56.693C113.387,25.383,88.009,0,56.694,0z M92.625,44.075
		c-4.466,8.754-13.692,21.771-24.975,29.629c-1.064,0.726-5.398,3.675-6.597,4.419c-1.669,5.125-2.432,9.896-8.589,14.188
		c-5.894,4.09-11.308,6.128-16.54,6.228h-0.202c-0.965,0.025-2.315,0.062-2.847-0.709c-0.387-0.531-0.287-1.362,0.288-2.479
		l4.566-8.78c-1.172,0.167-10.052-6.887-10.052-6.887c-2.352,1.289-4.269,2.293-5.236,2.726c-0.111,0.044-0.206,0.071-0.316,0.099
		c-0.039,0.033-0.093,0.046-0.148,0.051c-0.056,0.021-0.094,0.027-0.139,0.027c-0.065,0.018-0.135,0.045-0.188,0.045
		c-0.035,0.011-0.083,0.011-0.102,0.011l-0.037-0.161v0.161c-0.061,0-0.11,0-0.178,0c-0.038,0-0.101,0-0.133-0.011h-0.06
		c-0.022,0-0.062-0.027-0.079-0.027c-0.087-0.018-0.164-0.024-0.236-0.05c-0.022-0.013-0.038-0.013-0.038-0.013
		c-0.075-0.033-0.15-0.062-0.207-0.088c-0.038-0.028-0.056-0.044-0.083-0.044c-0.021-0.021-0.066-0.055-0.104-0.088
		c-0.055-0.04-0.088-0.069-0.14-0.09c-0.005-0.045-0.015-0.045-0.025-0.05c-0.028-0.013-0.028-0.029-0.046-0.058
		c-0.051-0.037-0.066-0.082-0.104-0.12v-0.019c-0.029-0.026-0.04-0.071-0.062-0.104c-0.027-0.037-0.05-0.099-0.065-0.127
		c-0.021-0.032-0.021-0.038-0.021-0.038l-0.25-0.658l0.167,0.145c-0.014-0.527,0.23-1.106,0.718-1.668
		c0.398-0.453,1.97-1.797,4.384-3.745c0,0-3.334-10.522-2.786-11.624l-11.087,1.337c-0.609,0.082-1.021-0.065-1.267-0.409
		c-0.594-0.86,0.146-2.727,0.632-3.744c1.765-3.739,5.479-9.107,12.969-13.358c6.527-3.715,10.629-2.338,14.437-2.499
		c1.24-0.952,5.636-4.062,6.81-4.875C55.913,32.778,71.33,28.642,81.106,27.49c7.884-0.94,13.309-0.217,14.835,1.986
		C97.476,31.663,96.256,37,92.625,44.075z"/>
</g>
</svg>
