<svg viewBox="0 0 392 392" enable-background="new 0 0 392 392" xml:space="preserve">
<g>
	<g>
		<defs>
			<rect width="392" height="392"/>
		</defs>
		<path clip-path="url(#SVGID_2_)" d="M387.199,364.16l-94.238-94.238c23.359-28.48,37.438-64.961,37.438-104.723
			C330.398,74,256.398,0,165.199,0C73.922,0,0,74,0,165.199s73.922,165.199,165.199,165.199c39.762,0,76.16-14,104.641-37.359
			l94.238,94.16c6.402,6.402,16.723,6.402,23.121,0C393.602,380.879,393.602,370.48,387.199,364.16L387.199,364.16z M165.199,297.52
			c-73.039,0-132.398-59.359-132.398-132.32c0-72.961,59.359-132.398,132.398-132.398c72.961,0,132.402,59.437,132.402,132.398
			C297.602,238.16,238.16,297.52,165.199,297.52L165.199,297.52z M165.199,297.52"/>
	</g>
</g>
</svg>
