<?xml version="1.0" encoding="utf-8"?>
<!-- Generator: Adobe Illustrator 16.0.0, SVG Export Plug-In . SVG Version: 6.00 Build 0)  -->
<!DOCTYPE svg PUBLIC "-//W3C//DTD SVG 1.1//EN" "http://www.w3.org/Graphics/SVG/1.1/DTD/svg11.dtd">
<svg version="1.1" id="Layer_1" xmlns="http://www.w3.org/2000/svg" xmlns:xlink="http://www.w3.org/1999/xlink" x="0px" y="0px"
	 width="611.988px" height="439.876px" viewBox="0 109.125 611.988 439.876" enable-background="new 0 109.125 611.988 439.876"
	 xml:space="preserve">
<title>Combined Shape</title>
<desc>Created with Sketch.</desc>
<g>
	<g transform="translate(-330.000000, -198.000000)">
		<g transform="translate(326.000000, 192.000000)">
			<path d="M526.495,328.339L378.578,180.422c-14.938-14.938-14.938-39.156,0-54.094s39.156-14.938,54.094,0l171.799,171.799
				c7.022,6.838,10.916,15.867,11.464,25.126c0.492,9.525-2.381,18.929-8.604,26.501l-152.712,190.89
				c-13.196,16.496-37.267,19.17-53.763,5.974s-19.17-37.267-5.974-53.763L526.495,328.339z M15.529,298.127l171.799-171.799
				c14.938-14.938,39.156-14.938,54.094,0s14.938,39.156,0,54.094L93.505,328.339l131.613,164.517
				c13.197,16.496,10.522,40.566-5.974,53.763s-40.566,10.522-53.763-5.974L12.67,349.755c-6.224-7.572-9.097-16.976-8.619-26.239
				C4.613,313.994,8.507,304.965,15.529,298.127z"/>
		</g>
	</g>
</g>
</svg>
